<svg version="1.1" id="Layer_1" xmlns="http://www.w3.org/2000/svg" xmlns:xlink="http://www.w3.org/1999/xlink" x="0px" y="0px"
	 width="100%" viewBox="0 0 680 303" enable-background="new 0 0 680 303" xml:space="preserve">
<path fill="#151515" opacity="1.000000" stroke="none" 
	d="
M195.000000,304.000000 
	C130.380585,304.000000 65.761169,304.000000 1.070877,304.000000 
	C1.070877,203.121094 1.070877,102.242126 1.070877,1.000000 
	C34.686691,1.000000 68.374687,1.000000 102.585739,1.384642 
	C105.639275,11.700387 107.893143,21.712202 110.761909,31.544611 
	C115.670753,48.369190 120.798828,65.134727 126.161865,81.819939 
	C129.145493,91.102486 132.790070,100.172577 135.957092,109.614571 
	C129.720184,113.418396 124.134453,117.645370 124.065987,125.342369 
	C123.853378,149.244904 123.913719,173.151505 124.098335,197.054749 
	C124.146278,203.262390 128.449142,207.993561 134.640213,209.137894 
	C138.356003,209.824692 142.207993,209.774734 146.000549,210.445007 
	C146.727463,213.013046 147.139633,215.363403 148.225098,217.344940 
	C162.426117,243.269211 176.744797,269.128967 190.962860,295.043945 
	C192.533142,297.906067 193.664871,301.008850 195.000000,304.000000 
z"/>
<path fill="#282828" opacity="1.000000" stroke="none" 
	d="
M681.000000,150.000000 
	C681.000000,200.687561 681.000000,251.375122 680.790039,302.650635 
	C680.318604,303.440521 680.125244,303.694305 680.000000,304.000000 
	C679.250000,304.000000 678.500000,304.000000 677.326843,303.646790 
	C675.808533,301.891479 674.976746,299.668030 673.575989,299.218781 
	C663.448608,295.970764 658.773132,285.004242 648.655151,281.847992 
	C648.279480,281.730835 648.139771,280.994812 647.780212,280.668152 
	C642.311462,275.699860 636.907043,270.656036 631.316528,265.828094 
	C626.459656,261.633789 621.086853,258.002045 616.470947,253.570770 
	C605.877197,243.400757 595.598999,232.901733 585.206604,222.522369 
	C579.659790,216.982574 573.725525,211.762131 568.714783,205.771408 
	C562.232300,198.021194 556.582642,189.580093 550.413391,181.560364 
	C545.491638,175.162415 540.394653,168.894547 535.201538,162.715164 
	C534.429077,161.796005 532.699768,161.680984 531.215576,160.918228 
	C523.861938,145.780548 516.674683,130.933411 509.575684,116.044159 
	C508.143005,113.039299 506.783691,111.298004 503.942688,114.939247 
	C499.765259,109.316132 495.715668,103.966812 492.121857,98.327049 
	C489.038239,93.487923 486.416595,88.348488 483.695648,83.285431 
	C478.514130,73.643707 472.988647,64.156776 468.374695,54.247646 
	C462.446777,41.516544 457.120331,28.495735 451.862274,15.467546 
	C450.004547,10.864514 446.601288,6.526427 448.000000,1.000000 
	C490.020905,1.000000 532.041809,1.000000 574.541199,1.383469 
	C575.526794,3.517678 575.759521,5.411104 576.584229,6.996602 
	C583.169312,19.655769 589.045593,32.782360 596.714417,44.756775 
	C609.407166,64.575729 622.563232,84.187973 636.872131,102.853882 
	C648.755371,118.355553 662.534363,132.409821 675.612305,146.980743 
	C676.913818,148.430878 679.180969,149.014328 681.000000,150.000000 
M563.759766,138.875015 
	C562.691284,138.417053 561.569275,138.053543 560.564087,137.483932 
	C557.161011,135.555664 553.839050,133.463745 554.663513,128.738449 
	C555.468201,124.126816 558.779114,121.427704 562.998169,121.738678 
	C567.571655,122.075775 572.379639,123.356689 576.416748,125.490768 
	C579.436646,127.087128 580.798950,127.300507 582.950256,124.644814 
	C585.441467,121.569542 583.871948,119.845818 581.484436,118.184341 
	C575.369019,113.928680 568.600281,112.068573 561.179871,113.112625 
	C553.070190,114.253654 547.255066,119.556519 545.943726,126.789833 
	C544.622009,134.080170 547.799438,139.909622 555.605469,144.111542 
	C558.517212,145.678909 561.592590,146.950638 564.628418,148.276871 
	C567.058960,149.338669 569.647400,150.081696 571.977661,151.320160 
	C575.343262,153.108856 577.974609,155.456772 577.205627,159.957184 
	C576.466492,164.283051 573.419434,166.015121 569.733643,166.938461 
	C564.262207,168.309143 559.210999,167.277893 554.713013,163.744141 
	C553.062439,162.447433 551.297852,161.295898 549.353455,159.913361 
	C547.946960,162.723373 542.328979,163.552429 546.249756,167.891556 
	C553.763672,176.207306 567.060913,178.370544 576.948120,173.143616 
	C588.405762,167.086487 589.434814,153.332077 578.679932,146.164383 
	C574.315369,143.255569 569.246582,141.403503 563.759766,138.875015 
z"/>
<path fill="#242424" opacity="1.000000" stroke="none" 
	d="
M531.413147,161.193909 
	C532.699768,161.680984 534.429077,161.796005 535.201538,162.715164 
	C540.394653,168.894547 545.491638,175.162415 550.413391,181.560364 
	C556.582642,189.580093 562.232300,198.021194 568.714783,205.771408 
	C573.725525,211.762131 579.659790,216.982574 585.206604,222.522369 
	C595.598999,232.901733 605.877197,243.400757 616.470947,253.570770 
	C621.086853,258.002045 626.459656,261.633789 631.316528,265.828094 
	C636.907043,270.656036 642.311462,275.699860 647.780212,280.668152 
	C648.139771,280.994812 648.279480,281.730835 648.655151,281.847992 
	C658.773132,285.004242 663.448608,295.970764 673.575989,299.218781 
	C674.976746,299.668030 675.808533,301.891479 676.951843,303.646790 
	C627.979126,304.000000 578.958191,304.000000 529.460815,303.632202 
	C527.475342,300.965515 526.273193,298.372070 524.400757,296.422302 
	C518.451172,290.226929 510.682739,285.146484 506.662109,277.937073 
	C503.630249,272.500519 498.171967,270.290497 495.320343,264.702026 
	C490.724579,255.695450 480.943848,250.395126 475.866547,241.006485 
	C471.922913,233.714218 465.564362,227.749451 460.468201,221.050873 
	C457.436798,217.066330 454.992157,212.629120 451.893646,208.703293 
	C445.966187,201.193115 439.750519,193.910675 433.692749,186.502411 
	C433.306610,186.030182 433.093750,185.297470 433.061584,184.672485 
	C432.634888,176.383972 425.749603,172.468643 421.221741,166.585724 
	C422.887054,165.623886 424.475739,164.648605 426.084686,164.613892 
	C433.726501,164.448975 441.393921,164.875580 449.011963,164.419403 
	C453.869476,164.128540 456.476624,165.568146 458.299255,170.192261 
	C460.744232,176.395187 462.827423,176.917694 469.419830,174.515091 
	C469.168945,173.751846 468.999908,172.943436 468.651764,172.221359 
	C459.598511,153.443802 450.548798,134.664383 441.405457,115.930695 
	C440.828918,114.749443 439.496887,113.936935 438.516327,112.952866 
	C437.639984,114.050423 436.534576,115.033943 435.922638,116.263145 
	C429.657166,128.848175 423.471802,141.473083 416.856659,154.055588 
	C415.319000,153.051285 413.317291,152.168533 413.205566,151.089951 
	C412.648499,145.713409 408.337067,143.313217 405.178223,139.655579 
	C409.207520,130.907471 413.210663,122.508156 417.274353,113.981834 
	C408.489716,111.976631 407.686829,112.354652 404.482452,119.253052 
	C403.240448,121.926842 401.890656,124.550575 400.252045,127.014481 
	C397.959900,123.252159 395.934814,119.708946 394.068237,116.084114 
	C391.383453,110.870262 388.762360,105.622009 386.208527,100.342743 
	C383.082794,93.881332 379.872009,87.450928 377.047852,80.857277 
	C375.131439,76.382980 374.176331,71.483383 372.126160,67.083961 
	C370.288605,63.140781 367.047424,59.837555 365.309998,55.865150 
	C362.572693,49.606773 360.450226,43.065529 358.322571,36.560600 
	C357.314056,33.477238 357.799500,29.530510 356.030457,27.144773 
	C351.687714,21.288134 350.126648,14.718772 349.013306,7.851562 
	C348.643860,5.572845 348.335999,3.284139 348.000000,1.000000 
	C381.020905,1.000000 414.041779,1.000000 447.531342,1.000000 
	C446.601288,6.526427 450.004547,10.864514 451.862274,15.467546 
	C457.120331,28.495735 462.446777,41.516544 468.374695,54.247646 
	C472.988647,64.156776 478.514130,73.643707 483.695648,83.285431 
	C486.416595,88.348488 489.038239,93.487923 492.121857,98.327049 
	C495.715668,103.966812 499.765259,109.316132 503.876282,115.299545 
	C494.673981,135.444214 485.212494,155.080811 475.672882,174.879593 
	C484.556671,176.437515 484.829315,176.548340 487.842957,169.133942 
	C489.375824,165.362732 491.441467,164.294678 495.316162,164.457397 
	C502.794952,164.771469 510.312988,164.854645 517.781921,164.440613 
	C522.341675,164.187851 524.603149,165.647949 526.210205,169.958969 
	C528.577393,176.309021 530.211853,176.727982 537.673035,174.605972 
	C535.566956,170.093613 533.490051,165.643768 531.413147,161.193909 
z"/>
<path fill="#1C1C1C" opacity="1.000000" stroke="none" 
	d="
M136.136765,109.338409 
	C132.790070,100.172577 129.145493,91.102486 126.161865,81.819939 
	C120.798828,65.134727 115.670753,48.369190 110.761909,31.544611 
	C107.893143,21.712202 105.639275,11.700387 103.054398,1.384642 
	C154.020889,1.000000 205.041794,1.000000 256.531555,1.419189 
	C258.246063,6.459938 259.179138,11.193493 260.788635,15.684653 
	C270.343445,42.346718 279.467590,69.185822 289.914642,95.497665 
	C297.202148,113.852036 306.336884,131.475800 314.775085,149.365234 
	C315.458221,150.813507 317.138123,151.791611 318.488037,153.402054 
	C318.537018,154.934906 318.452728,156.053879 318.254669,158.683548 
	C316.625153,156.629425 315.760437,155.466537 314.821564,154.366974 
	C304.144684,141.863129 293.437714,129.384857 282.786285,116.859398 
	C280.530884,114.207207 278.283020,111.882118 274.107117,113.822960 
	C274.107117,134.093155 274.107117,154.457520 274.107117,175.514481 
	C277.003510,175.353012 279.662537,175.204773 282.939941,175.022049 
	C282.939941,160.285706 282.939941,146.175232 282.939941,131.043488 
	C294.848907,144.740295 305.808746,157.645523 317.180115,170.177322 
	C319.527954,172.764725 323.408569,173.961273 326.955750,175.878174 
	C328.291595,176.795547 329.531738,177.461121 330.176147,178.497208 
	C342.444489,198.222427 354.073120,218.373978 367.018127,237.641830 
	C379.572174,256.327789 393.475708,274.106384 406.757843,292.304443 
	C409.569153,296.156311 412.255859,300.099121 415.000000,304.000000 
	C376.979095,304.000000 338.958221,304.000000 300.418884,303.629944 
	C298.367737,300.840271 296.230194,298.607727 295.413696,295.966736 
	C292.774048,287.428680 285.180298,282.358582 281.402374,274.236755 
	C275.716797,262.013824 266.582214,251.432510 259.363190,239.872711 
	C254.418488,231.954758 250.216080,223.571594 245.728867,215.370651 
	C244.410629,212.961395 243.253311,210.464096 242.207764,207.725113 
	C247.002136,204.437256 248.818405,199.996353 248.823410,194.694351 
	C248.844482,172.375870 248.855728,150.057312 248.821213,127.738846 
	C248.810959,121.107597 246.039185,115.960938 240.429092,112.247147 
	C226.712540,103.166992 213.077911,93.963173 199.392334,84.836082 
	C190.232788,78.727463 182.198715,78.762375 173.035278,84.851044 
	C160.740372,93.020432 148.436676,101.176575 136.136765,109.338409 
z"/>
<path fill="#202020" opacity="1.000000" stroke="none" 
	d="
M415.468658,304.000000 
	C412.255859,300.099121 409.569153,296.156311 406.757843,292.304443 
	C393.475708,274.106384 379.572174,256.327789 367.018127,237.641830 
	C354.073120,218.373978 342.444489,198.222427 330.176147,178.497208 
	C329.531738,177.461121 328.291595,176.795547 327.153687,175.457794 
	C327.042786,154.896606 327.111145,134.835144 327.143250,114.773636 
	C327.143921,114.342461 326.728302,113.910622 326.529541,113.523216 
	C318.676147,112.631958 318.715118,112.632210 318.666321,120.169235 
	C318.595490,131.109100 318.461731,142.048553 318.354828,152.988190 
	C317.138123,151.791611 315.458221,150.813507 314.775085,149.365234 
	C306.336884,131.475800 297.202148,113.852036 289.914642,95.497665 
	C279.467590,69.185822 270.343445,42.346718 260.788635,15.684653 
	C259.179138,11.193493 258.246063,6.459938 257.000244,1.419189 
	C287.020905,1.000000 317.041779,1.000000 347.531342,1.000000 
	C348.335999,3.284139 348.643860,5.572845 349.013306,7.851562 
	C350.126648,14.718772 351.687714,21.288134 356.030457,27.144773 
	C357.799500,29.530510 357.314056,33.477238 358.322571,36.560600 
	C360.450226,43.065529 362.572693,49.606773 365.309998,55.865150 
	C367.047424,59.837555 370.288605,63.140781 372.126160,67.083961 
	C374.176331,71.483383 375.131439,76.382980 377.047852,80.857277 
	C379.872009,87.450928 383.082794,93.881332 386.208527,100.342743 
	C388.762360,105.622009 391.383453,110.870262 394.068237,116.084114 
	C395.934814,119.708946 397.959900,123.252159 400.149078,127.373070 
	C395.870453,137.604523 391.356873,147.294754 386.488037,157.747772 
	C385.353455,155.629501 384.600281,154.391571 384.003357,153.082367 
	C378.919952,141.932556 373.915039,130.746704 368.783447,119.619202 
	C365.458008,112.408249 364.601379,112.081161 355.820038,113.878006 
	C365.574127,134.751617 375.280396,155.522842 384.986633,176.294083 
	C385.649902,176.387451 386.313171,176.480835 386.976440,176.574219 
	C393.034973,164.384262 399.093506,152.194305 405.152039,140.004364 
	C408.337067,143.313217 412.648499,145.713409 413.205566,151.089951 
	C413.317291,152.168533 415.319000,153.051285 416.792053,154.416153 
	C413.868073,161.478760 410.601318,168.149551 407.295593,174.899902 
	C416.512085,175.224548 416.511658,175.224319 420.845245,167.391708 
	C420.923920,167.249527 421.050323,167.133759 421.154480,167.005676 
	C425.749603,172.468643 432.634888,176.383972 433.061584,184.672485 
	C433.093750,185.297470 433.306610,186.030182 433.692749,186.502411 
	C439.750519,193.910675 445.966187,201.193115 451.893646,208.703293 
	C454.992157,212.629120 457.436798,217.066330 460.468201,221.050873 
	C465.564362,227.749451 471.922913,233.714218 475.866547,241.006485 
	C480.943848,250.395126 490.724579,255.695450 495.320343,264.702026 
	C498.171967,270.290497 503.630249,272.500519 506.662109,277.937073 
	C510.682739,285.146484 518.451172,290.226929 524.400757,296.422302 
	C526.273193,298.372070 527.475342,300.965515 528.992126,303.632202 
	C491.312439,304.000000 453.624878,304.000000 415.468658,304.000000 
M339.491119,174.628571 
	C346.615112,177.007187 347.960754,176.166580 347.962128,169.320099 
	C347.965454,152.850159 347.965027,136.380219 347.965118,119.910271 
	C347.965149,112.543198 347.089020,111.927200 339.284515,113.996010 
	C339.284515,133.886093 339.284515,153.830719 339.491119,174.628571 
z"/>
<path fill="#191919" opacity="1.000000" stroke="none" 
	d="
M242.022247,208.007141 
	C243.253311,210.464096 244.410629,212.961395 245.728867,215.370651 
	C250.216080,223.571594 254.418488,231.954758 259.363190,239.872711 
	C266.582214,251.432510 275.716797,262.013824 281.402374,274.236755 
	C285.180298,282.358582 292.774048,287.428680 295.413696,295.966736 
	C296.230194,298.607727 298.367737,300.840271 299.950195,303.629944 
	C265.312439,304.000000 230.624878,304.000000 195.468658,304.000000 
	C193.664871,301.008850 192.533142,297.906067 190.962860,295.043945 
	C176.744797,269.128967 162.426117,243.269211 148.225098,217.344940 
	C147.139633,215.363403 146.727463,213.013046 146.459610,210.343567 
	C153.872314,209.853043 160.827744,209.853043 168.301682,209.853043 
	C168.301682,207.572540 168.295883,205.787155 168.302704,204.001801 
	C168.330704,196.671783 168.107147,189.329453 168.460403,182.015015 
	C168.863235,173.673645 171.859879,170.932877 180.213333,170.551132 
	C183.705154,170.391571 187.210449,170.483749 190.708954,170.521942 
	C200.945236,170.633667 203.964203,173.703964 203.991425,184.040237 
	C204.013672,192.492188 203.995956,200.944244 203.995956,209.836227 
	C211.573959,209.836227 218.704590,210.066559 225.812225,209.761353 
	C231.230682,209.528687 236.619980,208.616837 242.022247,208.007141 
z"/>
<path fill="#2C2C2C" opacity="1.000000" stroke="none" 
	d="
M681.000000,149.531342 
	C679.180969,149.014328 676.913818,148.430878 675.612305,146.980743 
	C662.534363,132.409821 648.755371,118.355553 636.872131,102.853882 
	C622.563232,84.187973 609.407166,64.575729 596.714417,44.756775 
	C589.045593,32.782360 583.169312,19.655769 576.584229,6.996602 
	C575.759521,5.411104 575.526794,3.517678 575.009888,1.383469 
	C610.272644,1.000000 645.545227,1.000000 681.000000,1.000000 
	C681.000000,50.354080 681.000000,99.708382 681.000000,149.531342 
z"/>
<path fill="#242424" opacity="1.000000" stroke="none" 
	d="
M680.500000,304.000000 
	C680.125244,303.694305 680.318604,303.440521 680.790039,303.119324 
	C681.000000,303.333344 681.000000,303.666656 680.500000,304.000000 
z"/>
<path fill="#FEFEFE" opacity="1.000000" stroke="none" 
	d="
M242.207764,207.725113 
	C236.619980,208.616837 231.230682,209.528687 225.812225,209.761353 
	C218.704590,210.066559 211.573959,209.836227 203.995956,209.836227 
	C203.995956,200.944244 204.013672,192.492188 203.991425,184.040237 
	C203.964203,173.703964 200.945236,170.633667 190.708954,170.521942 
	C187.210449,170.483749 183.705154,170.391571 180.213333,170.551132 
	C171.859879,170.932877 168.863235,173.673645 168.460403,182.015015 
	C168.107147,189.329453 168.330704,196.671783 168.302704,204.001801 
	C168.295883,205.787155 168.301682,207.572540 168.301682,209.853043 
	C160.827744,209.853043 153.872314,209.853043 146.457825,209.954468 
	C142.207993,209.774734 138.356003,209.824692 134.640213,209.137894 
	C128.449142,207.993561 124.146278,203.262390 124.098335,197.054749 
	C123.913719,173.151505 123.853378,149.244904 124.065987,125.342369 
	C124.134453,117.645370 129.720184,113.418396 135.957092,109.614563 
	C148.436676,101.176575 160.740372,93.020432 173.035278,84.851044 
	C182.198715,78.762375 190.232788,78.727463 199.392334,84.836082 
	C213.077911,93.963173 226.712540,103.166992 240.429092,112.247147 
	C246.039185,115.960938 248.810959,121.107597 248.821213,127.738846 
	C248.855728,150.057312 248.844482,172.375870 248.823410,194.694351 
	C248.818405,199.996353 247.002136,204.437256 242.207764,207.725113 
z"/>
<path fill="#F7F7F7" opacity="1.000000" stroke="none" 
	d="
M531.215576,160.918213 
	C533.490051,165.643768 535.566956,170.093613 537.673035,174.605972 
	C530.211853,176.727982 528.577393,176.309021 526.210205,169.958969 
	C524.603149,165.647949 522.341675,164.187851 517.781921,164.440613 
	C510.312988,164.854645 502.794952,164.771469 495.316162,164.457397 
	C491.441467,164.294678 489.375824,165.362732 487.842957,169.133942 
	C484.829315,176.548340 484.556671,176.437515 475.672882,174.879593 
	C485.212494,155.080811 494.673981,135.444214 504.201904,115.447327 
	C506.783691,111.298004 508.143005,113.039299 509.575684,116.044159 
	C516.674683,130.933411 523.861938,145.780548 531.215576,160.918213 
M502.643738,156.516586 
	C508.052429,156.516586 513.461121,156.516586 519.778748,156.516586 
	C515.341614,147.084381 511.303284,138.499939 506.840393,129.012985 
	C502.259155,138.791840 498.235931,147.379578 493.955444,156.516479 
	C497.104065,156.516479 499.403748,156.516479 502.643738,156.516586 
z"/>
<path fill="#F9F9F9" opacity="1.000000" stroke="none" 
	d="
M564.129028,138.972809 
	C569.246582,141.403503 574.315369,143.255569 578.679932,146.164383 
	C589.434814,153.332077 588.405762,167.086487 576.948120,173.143616 
	C567.060913,178.370544 553.763672,176.207306 546.249756,167.891556 
	C542.328979,163.552429 547.946960,162.723373 549.353455,159.913361 
	C551.297852,161.295898 553.062439,162.447433 554.713013,163.744141 
	C559.210999,167.277893 564.262207,168.309143 569.733643,166.938461 
	C573.419434,166.015121 576.466492,164.283051 577.205627,159.957184 
	C577.974609,155.456772 575.343262,153.108856 571.977661,151.320160 
	C569.647400,150.081696 567.058960,149.338669 564.628418,148.276871 
	C561.592590,146.950638 558.517212,145.678909 555.605469,144.111542 
	C547.799438,139.909622 544.622009,134.080170 545.943726,126.789833 
	C547.255066,119.556519 553.070190,114.253654 561.179871,113.112625 
	C568.600281,112.068573 575.369019,113.928680 581.484436,118.184341 
	C583.871948,119.845818 585.441467,121.569542 582.950256,124.644814 
	C580.798950,127.300507 579.436646,127.087128 576.416748,125.490768 
	C572.379639,123.356689 567.571655,122.075775 562.998169,121.738678 
	C558.779114,121.427704 555.468201,124.126816 554.663513,128.738449 
	C553.839050,133.463745 557.161011,135.555664 560.564087,137.483932 
	C561.569275,138.053543 562.691284,138.417053 564.129028,138.972809 
z"/>
<path fill="#F6F6F6" opacity="1.000000" stroke="none" 
	d="
M421.221741,166.585724 
	C421.050323,167.133759 420.923920,167.249527 420.845245,167.391708 
	C416.511658,175.224319 416.512085,175.224548 407.295593,174.899902 
	C410.601318,168.149551 413.868073,161.478760 417.199432,154.447418 
	C423.471802,141.473083 429.657166,128.848175 435.922638,116.263145 
	C436.534576,115.033943 437.639984,114.050423 438.516327,112.952866 
	C439.496887,113.936935 440.828918,114.749443 441.405457,115.930695 
	C450.548798,134.664383 459.598511,153.443802 468.651764,172.221359 
	C468.999908,172.943436 469.168945,173.751846 469.419830,174.515091 
	C462.827423,176.917694 460.744232,176.395187 458.299255,170.192261 
	C456.476624,165.568146 453.869476,164.128540 449.011963,164.419403 
	C441.393921,164.875580 433.726501,164.448975 426.084686,164.613892 
	C424.475739,164.648605 422.887054,165.623886 421.221741,166.585724 
M441.630402,134.913651 
	C440.741333,133.232834 439.852234,131.552032 438.624756,129.231506 
	C434.220459,138.659256 430.158447,147.354309 426.032135,156.186981 
	C434.846405,156.186981 442.883759,156.186981 451.482605,156.186981 
	C448.151672,149.001083 445.046478,142.302139 441.630402,134.913651 
z"/>
<path fill="#F7F7F7" opacity="1.000000" stroke="none" 
	d="
M405.178223,139.655579 
	C399.093506,152.194305 393.034973,164.384262 386.976440,176.574219 
	C386.313171,176.480835 385.649902,176.387451 384.986633,176.294083 
	C375.280396,155.522842 365.574127,134.751617 355.820038,113.878006 
	C364.601379,112.081161 365.458008,112.408249 368.783447,119.619202 
	C373.915039,130.746704 378.919952,141.932556 384.003357,153.082367 
	C384.600281,154.391571 385.353455,155.629501 386.488037,157.747772 
	C391.356873,147.294754 395.870453,137.604523 400.486969,127.555710 
	C401.890656,124.550575 403.240448,121.926842 404.482452,119.253052 
	C407.686829,112.354652 408.489716,111.976631 417.274353,113.981834 
	C413.210663,122.508156 409.207520,130.907471 405.178223,139.655579 
z"/>
<path fill="#F8F8F8" opacity="1.000000" stroke="none" 
	d="
M318.488037,153.402054 
	C318.461731,142.048553 318.595490,131.109100 318.666321,120.169235 
	C318.715118,112.632210 318.676147,112.631958 326.529541,113.523216 
	C326.728302,113.910622 327.143921,114.342461 327.143250,114.773636 
	C327.111145,134.835144 327.042786,154.896606 326.780670,175.378479 
	C323.408569,173.961273 319.527954,172.764725 317.180115,170.177322 
	C305.808746,157.645523 294.848907,144.740295 282.939941,131.043488 
	C282.939941,146.175232 282.939941,160.285706 282.939941,175.022049 
	C279.662537,175.204773 277.003510,175.353012 274.107117,175.514481 
	C274.107117,154.457520 274.107117,134.093155 274.107117,113.822960 
	C278.283020,111.882118 280.530884,114.207207 282.786285,116.859398 
	C293.437714,129.384857 304.144684,141.863129 314.821564,154.366974 
	C315.760437,155.466537 316.625153,156.629425 318.254669,158.683548 
	C318.452728,156.053879 318.537018,154.934906 318.488037,153.402054 
z"/>
<path fill="#F0F0F0" opacity="1.000000" stroke="none" 
	d="
M339.387817,174.201950 
	C339.284515,153.830719 339.284515,133.886093 339.284515,113.996010 
	C347.089020,111.927200 347.965149,112.543198 347.965118,119.910271 
	C347.965027,136.380219 347.965454,152.850159 347.962128,169.320099 
	C347.960754,176.166580 346.615112,177.007187 339.387817,174.201950 
z"/>
<path fill="#303030" opacity="1.000000" stroke="none" 
	d="
M502.173584,156.516541 
	C499.403748,156.516479 497.104065,156.516479 493.955444,156.516479 
	C498.235931,147.379578 502.259155,138.791840 506.840393,129.012985 
	C511.303284,138.499939 515.341614,147.084381 519.778748,156.516586 
	C513.461121,156.516586 508.052429,156.516586 502.173584,156.516541 
z"/>
<path fill="#2E2E2E" opacity="1.000000" stroke="none" 
	d="
M441.785828,135.258423 
	C445.046478,142.302139 448.151672,149.001083 451.482605,156.186981 
	C442.883759,156.186981 434.846405,156.186981 426.032135,156.186981 
	C430.158447,147.354309 434.220459,138.659256 438.624756,129.231506 
	C439.852234,131.552032 440.741333,133.232834 441.785828,135.258423 
z"/>
</svg>